<?xml version="1.0" encoding="UTF-8"?>
<svg id="Layer_1" xmlns="http://www.w3.org/2000/svg" version="1.1" viewBox="0 0 576 792">
  <!-- Generator: Adobe Illustrator 29.8.5, SVG Export Plug-In . SVG Version: 2.1.1 Build 2)  -->
  <defs>
    <style>
      .st0 {
        fill: #231f20;
      }
    </style>
  </defs>
  <path class="st0" d="M336.53,220.12l-43.99,35.62c1.16-12.93,4.96-28.37,4.19-34.68l-3.08-25.16c-1.31-10.68-17.63-10.99-9.49-20.23l-80.71,11.59c-47.6,6.83-74.59,20.33-69.59,61.21l4.93,40.27c2.01,16.47,21.42,27.04,44.1,29.99l50.11,6.78c10.72,1.56,16.7,5.67,17.71,13.91l-13.06,1.85c-1.96,7.7-5.85,17.37-4.98,50.41.6,22.73-14.84-2.95-16.71-18.2-2.99-24.4-4.05-27.55-1.19-35.11-14.15,1.41-40.84-13.69-68.99-9.65-14.07,2.02-28.83,8.79-42.46,24.72,7.6-3.26,14.08-5.43,19.87-6.27,26.9-3.86,49.94,28.1,51.02,36.95l-63.32,31.2c1.31,10.68,45.74,12.41,38.06,21.89l73.8-10.6c-21.6,24.71-59.12,53.47-7.65,66.92,63.66,16.64,188.07,14.85,199.44-36.2l57.6-185.32c8.65-38.83-88.95-39.7-135.61-51.9ZM207.45,285.39c-10.68-1.26-16.36-6.34-17.33-14.27l-32.27-20.82c-2.01-16.47,29.31-27.49,47.53-30.11,14.07-2.02,70.43-44.55,73.45-19.84,1.79,14.64-58.08,66.37-60.94,73.92,18.3-4.91,37.66,1.19,61.54,1.61,17.67,7.71,62.64,15.62,60.85,23.64l-33.57,60.42-4.55-37.24c-1.6-13.12-16.11-28.42-33.23-30.62l-61.47-6.7ZM295.9,455.54c-31.33-8.19-49.28-18.01-56.78-31.31,15.2-2.33,28.12-6.42,38.49-11.94l-.68,1.22c-2.12,9.5-10.26,15.13-19.43,20.21,3.38.31,6.27,1.06,9.16,1.82,15.55,4.07,26.1,13.43,36.82,21.98l-7.6-1.99ZM397.84,314.09l-22.74,102.1c-7.56,33.94-20.05,47.06-49.41,44.84-10-13.53,51.26-109.98,52.95-117.59l-23.35-63.47,15.19,3.97c23.51,6.15,30.62,15.48,27.35,30.14Z"/>
  <text/>
</svg>